<svg width="142" height="25" viewBox="0 0 142 25" fill="none" xmlns="http://www.w3.org/2000/svg">
<path d="M79.4275 7.96105C78.7424 3.16933 75.4358 0 70.4824 0C66.6356 0 62.9996 1.82362 60.681 4.56534L60.4702 4.45215L60.6941 3.04356V1.0816H53.7383V23.6694H59.8773C61.0762 11.9227 66.2008 6.67823 69.6392 6.67823C71.5495 6.67823 72.4585 8.36351 72.6956 10.7279C72.9722 13.4948 72.7746 18.4752 72.3662 23.6694H79.243C79.6251 18.2865 79.9413 11.6712 79.4143 7.94848L79.4275 7.96105Z" fill="#F08300"/>
<path d="M141.727 7.96105C141.042 3.16933 137.735 0 132.782 0C128.935 0 125.299 1.82362 122.98 4.56534L122.769 4.45215L123.007 3.04356V1.0816H116.051V23.6694H122.19C123.389 11.9227 128.513 6.67823 131.952 6.67823C133.862 6.67823 134.771 8.36351 135.008 10.7279C135.285 13.4948 135.087 18.4752 134.679 23.6694H141.556C141.924 18.2865 142.254 11.6712 141.727 7.94848V7.96105Z" fill="#F08300"/>
<path d="M99.7151 1.0813V17.6574C99.7151 22.7761 95.4599 24.0589 90.4143 24.0589C87.8586 24.0589 85.0394 23.6691 82.7734 23.166L82.1016 17.343C83.7615 18.1605 86.4226 18.8019 88.1616 18.8019C91.679 18.8145 92.3904 17.3052 92.3904 14.5635V1.0813H99.7151Z" fill="#F08300"/>
<path d="M111.519 1.0813V23.6691H104.023V1.0813H111.519Z" fill="#F08300"/>
<path d="M8.29959 19.2929C11.3691 19.2929 12.9105 18.6641 12.9105 17.4441C12.9105 14.8282 0.764089 12.0864 0.764089 6.36404C0.764089 3.64748 3.70188 0.490723 11.9488 0.490723C14.386 0.490723 17.1788 0.704527 20.143 1.13213L21.1837 6.3892C18.9705 5.65975 16.6782 5.25729 14.4255 5.25729C12.726 5.25729 9.80142 5.60944 9.80142 6.85453C9.80142 9.96098 21.9214 11.9607 21.9214 17.8843C21.9214 20.865 18.8783 24.0595 10.3152 24.0595C7.15345 24.0595 3.92584 23.7199 1.05392 23.2797L0 17.6579C2.72701 18.6263 5.73067 19.2929 8.29959 19.2929Z" fill="#F08300"/>
<path d="M31.9868 1.0813V13.9347C31.9868 17.1795 33.1066 19.1163 37.0719 19.1163C41.0373 19.1163 42.1571 17.1921 42.1571 13.9347V1.0813H49.5345V16.3746C49.5345 21.8203 44.4362 24.0589 37.0719 24.0589C29.7077 24.0589 24.6094 21.8329 24.6094 16.3746V1.0813H31.9868Z" fill="#F08300"/>
</svg>
